<?xml version="1.0" encoding="utf-8"?>
<!-- Generator: Adobe Illustrator 16.0.0, SVG Export Plug-In . SVG Version: 6.00 Build 0)  -->
<!DOCTYPE svg PUBLIC "-//W3C//DTD SVG 1.1//EN" "http://www.w3.org/Graphics/SVG/1.1/DTD/svg11.dtd">
<svg version="1.1" id="Laag_1" xmlns="http://www.w3.org/2000/svg" xmlns:xlink="http://www.w3.org/1999/xlink" x="0px" y="0px"
	 width="1920px" height="1080px" viewBox="0 0 1920 1080" enable-background="new 0 0 1920 1080" xml:space="preserve">
<g>
	<path fill="none" d="M1655.542,1163.295c-482.988,0-965.891,0-1448.711,0c0-402.959,0-805.832,0-1208.624
		c482.986,0,965.891,0,1448.711,0C1655.542,357.63,1655.542,760.504,1655.542,1163.295z M738.67,830.523
		c-14.101-5.751-26.239-12.106-39.146-15.735c-77.217-21.709-150.234-8.624-219.303,29.463c-36.25,19.99-66.42,46.931-84.171,85.567
		c-19.606,42.672-10.888,86.376,25.902,115.395c15.233,12.012,33.571,21.362,51.933,27.867
		c39.864,14.125,81.383,13.911,122.617,6.457c60.713-10.975,114.706-35.563,156.98-82c19.926-21.891,33.652-47.127,35.362-77.196
		c3.079-54.165,5.304-108.376,7.886-162.569c5.859-122.991,11.758-245.981,17.463-368.979c0.271-5.831,2.328-7.688,7.961-8.159
		c14.193-1.187,28.332-3.038,42.492-4.63c84.989-9.556,169.979-19.112,254.968-28.67c83.953-9.441,167.905-18.903,251.859-28.316
		c21.318-2.392,42.652-4.639,65.777-7.146c-6.856,145.117-13.647,288.866-20.408,431.973c-18.292-6.671-34.439-14.672-51.521-18.427
		c-77.868-17.118-150.596-2.324-218.073,39.047c-31.665,19.413-57.82,44.588-73.478,79.064
		c-19.86,43.73-9.486,88.345,28.283,117.765c10.826,8.435,23.317,15.319,35.989,20.684c42.606,18.035,87.175,19.745,132.142,12.131
		c61.914-10.482,117.207-34.789,160.409-81.936c21.755-23.734,35.716-51.178,36.017-84.392c0.126-13.902,1.245-27.797,1.917-41.695
		c5.955-123.32,11.938-246.643,17.857-369.965c6.423-133.761,12.792-267.524,19.154-401.289c0.175-3.66,0.022-7.334,0.022-11.393
		c-3.746,0-6.154-0.228-8.511,0.035c-48.01,5.352-96.015,10.751-144.018,16.164c-84.291,9.505-168.575,19.073-252.871,28.531
		C994.779,59.991,889.39,71.798,783.975,83.36c-7.447,0.817-9.657,3.492-9.981,10.948c-2.632,60.456-5.811,120.886-8.689,181.33
		c-8.193,171.97-16.318,343.942-24.495,515.912C740.202,804.307,739.414,817.056,738.67,830.523z"/>
	<path d="M738.67,830.523c0.743-13.469,1.531-26.218,2.138-38.975c8.177-171.97,16.302-343.94,24.495-515.912
		c2.88-60.444,6.058-120.874,8.689-181.33c0.323-7.456,2.534-10.131,9.981-10.948C889.39,71.797,994.779,59.99,1100.165,48.165
		c84.296-9.458,168.58-19.026,252.871-28.531c48.003-5.413,96.008-10.812,144.018-16.164c2.355-0.263,4.765-0.035,8.51-0.035
		c0,4.059,0.152,7.733-0.021,11.393c-6.362,133.765-12.73,267.528-19.154,401.289c-5.921,123.322-11.902,246.645-17.857,369.965
		c-0.672,13.898-1.791,27.793-1.917,41.695c-0.301,33.214-14.263,60.655-36.017,84.392c-43.203,47.146-98.495,71.452-160.41,81.936
		c-44.966,7.614-89.533,5.904-132.141-12.131c-12.672-5.363-25.163-12.249-35.989-20.684
		c-37.771-29.42-48.145-74.033-28.284-117.765c15.657-34.478,41.813-59.651,73.479-79.064
		c67.479-41.371,140.205-56.165,218.073-39.047c17.081,3.755,33.229,11.756,51.521,18.427
		c6.761-143.106,13.552-286.855,20.408-431.973c-23.125,2.507-44.459,4.754-65.777,7.146
		c-83.955,9.413-167.906,18.875-251.859,28.316c-84.988,9.558-169.979,19.114-254.969,28.67c-14.16,1.592-28.297,3.443-42.492,4.63
		c-5.633,0.471-7.69,2.328-7.961,8.159c-5.705,122.998-11.603,245.988-17.463,368.98c-2.583,54.192-4.807,108.403-7.885,162.568
		c-1.709,30.069-15.437,55.307-35.363,77.196c-42.273,46.438-96.267,71.024-156.979,82c-41.234,7.454-82.752,7.668-122.617-6.457
		c-18.362-6.505-36.7-15.855-51.933-27.867c-36.79-29.019-45.508-72.723-25.902-115.396c17.751-38.637,47.921-65.576,84.171-85.566
		c69.068-38.087,142.085-51.172,219.304-29.463C712.431,818.417,724.569,824.771,738.67,830.523z M1447.182,106.465
		c-208.546,26.855-415.517,53.504-623.333,80.263c-1.471,32.545-2.89,63.949-4.376,96.841
		c208.729-26.9,415.697-53.576,622.966-80.288C1444.047,170.422,1445.573,139.284,1447.182,106.465z"/>
	<path fill="none" d="M1447.182,106.465c-1.607,32.818-3.135,63.957-4.743,96.816c-207.27,26.712-414.237,53.388-622.967,80.288
		c1.486-32.892,2.905-64.295,4.376-96.841C1031.665,159.969,1238.636,133.32,1447.182,106.465z"/>
</g>
</svg>
